<?xml version="1.0" encoding="UTF-8" standalone="no"?>
<!-- Created with Inkscape (http://www.inkscape.org/) -->

<svg
   version="1.1"
   id="svg1"
   width="1200"
   height="1200"
   viewBox="0 0 1200 1200"
   xmlns="http://www.w3.org/2000/svg"
   xmlns:svg="http://www.w3.org/2000/svg">
  <defs
     id="defs1" />
  <g
     id="g1"
     style="fill:#115031;fill-opacity:1">
    <path
       style="display:inline;fill:#115031;fill-opacity:1"
       d="m 497.33333,973.75502 c -12.34285,-1.28247 -41.20072,-7.60514 -54.1831,-11.87135 C 419.23495,954.02474 393.14883,940.25437 372,924.32481 362.2316,916.96713 337.7288,893.30271 330.24657,884 c -26.90854,-33.45556 -42.64179,-68.56453 -50.4611,-112.60472 -4.08714,-23.01973 -4.09907,-55.72887 -0.0278,-76.29 4.26616,-21.54545 9.39857,-34.7194 19.7048,-50.57853 4.89913,-7.53875 101.25187,-105.86008 103.74054,-105.86008 1.62783,0 71.75863,69.55153 72.56251,71.96316 0.2515,0.7545 -1.48798,3.8279 -3.86552,6.82978 -15.20474,19.19756 -25.78195,43.17293 -29.94384,67.87372 -3.6614,21.73034 -2.00165,58.86165 3.33755,74.66667 1.36253,4.03333 3.47422,10.63333 4.69266,14.66667 4.31542,14.28517 17.46567,37.96798 30.81385,55.4939 2.85989,3.75499 35.3498,37.31897 72.1998,74.58664 36.85,37.26767 67,68.24541 67,68.83943 0,1.02839 -112.89812,1.18336 -122.66667,0.16838 z M 718,961.42821 c -23.65128,-3.15462 -51.16051,-13.27729 -65.49625,-24.10088 -3.83985,-2.89911 -17.37404,-15.67979 -30.07598,-28.40151 -56.02894,-56.11619 -83.7611,-84.47987 -83.7611,-85.66853 0,-1.66191 57.6238,-59.25729 59.28652,-59.25729 0.69536,0 4.59036,2.30718 8.65555,5.12706 15.06987,10.45345 30.19938,17.11258 51.39126,22.61946 12.1789,3.16479 15.6422,3.46694 40,3.4898 29.22313,0.0274 40.52413,-1.78093 62,-9.921 36.48768,-13.83005 42.94085,-19.19025 138.95751,-115.42243 C 942.43088,626.32194 978.45,590.67156 979,590.66982 c 0.55,-0.002 1,29.90412 1,66.45744 0,59.53986 -0.28571,68.59943 -2.74374,87 -5.49151,41.10901 -17.69772,74.12618 -39.4348,106.66913 C 892.34671,918.87741 821.33559,959.74417 744.66667,961.9566 734.4,962.25286 722.4,962.01509 718,961.42821 Z m 59.30648,-307.87695 c -19.78523,-19.8124 -35.97315,-36.3598 -35.97315,-36.77201 0,-0.41221 2.55,-4.20857 5.66667,-8.43635 33.1294,-44.94031 38.68204,-112.83549 13.79328,-168.65781 -3.40865,-7.64517 -14.70377,-27.0367 -17.37711,-29.83314 -0.77889,-0.81476 -3.21617,-3.80148 -5.41617,-6.63716 -10.514,-13.55195 -25.83674,-29.56647 -93.6179,-97.8445 -28.75651,-28.96731 -51.77869,-53.1737 -51.16041,-53.79198 0.61829,-0.61829 28.64634,-0.87183 62.28456,-0.56343 56.0157,0.51356 62.49672,0.8089 77.04645,3.51101 16.45,3.05501 37.3836,8.71502 50.11397,13.54976 8.47688,3.21935 28.90519,13.32018 34.30895,16.96416 2.03008,1.36896 8.16515,5.44365 13.6335,9.05487 21.06346,13.91002 41.97068,33.25407 56.82025,52.57199 30.7878,40.05206 48.06733,83.96389 51.54702,130.99457 3.52054,47.58269 -5.76482,87.60139 -25.60139,110.33876 -3.51877,4.03333 -27.47973,28.53744 -53.24657,54.45357 -46.84881,47.12023 -46.84881,47.12023 -82.82195,11.09769 z m -539.99555,-18.388 c -0.45002,-50.15741 0.41,-146.85537 1.3822,-155.41055 6.5647,-57.76813 35.1573,-111.37865 82.75599,-155.16573 5.7108,-5.25349 20.92617,-17.21978 25.32907,-19.92031 1.19562,-0.73334 4.6172,-2.96408 7.60353,-4.9572 19.90859,-13.28734 56.91095,-28.29496 78.11507,-31.68233 4.78025,-0.76365 9.47402,-1.68352 10.43062,-2.04416 4.43706,-1.6728 32.45978,-2.85907 44.76094,-1.89485 30.59172,2.39792 53.81166,10.55319 74.6504,26.21859 11.16736,8.39499 112.99458,111.31017 112.99458,114.20185 0,1.70025 -54.52492,58.1581 -56.16696,58.1581 -0.35531,0 -4.26812,-2.45972 -8.69513,-5.46605 -16.33571,-11.09337 -35.87574,-19.30136 -57.4595,-24.13645 -11.50587,-2.57749 -17.38443,-3.05511 -37.01174,-3.00713 -30.75449,0.0752 -46.40229,3.59482 -76.66667,17.24455 -17.75331,8.00704 -31.38403,18.98065 -65.14866,52.44888 -24.29886,24.08556 -127.11394,128.41703 -130.65835,132.5854 -0.83947,0.98726 -2.57632,2.58903 -3.85965,3.5595 -2.01913,1.52687 -2.33635,1.42829 -2.35574,-0.73211 z"
       id="path1" />
  </g>
</svg>
